<?xml version="1.0" encoding="utf-8"?>
<!-- Generator: Adobe Illustrator 25.0.0, SVG Export Plug-In . SVG Version: 6.00 Build 0)  -->
<svg version="1.1" id="Lager_1" xmlns="http://www.w3.org/2000/svg" xmlns:xlink="http://www.w3.org/1999/xlink" x="0px" y="0px"
	 viewBox="0 0 160 171.1" style="enable-background:new 0 0 160 171.1;" xml:space="preserve">
<style type="text/css">
	.st0{fill:#CC914A;}
</style>
<g>
	<g>
		<path class="st0" d="M93.1,88.9l-6.4,8l7.1,12.8l-9.2,11.4l7.1,12.8l-9.2,11.4l7.1,12.8L84,165l69.4,6.1l6.7-76.1L93.1,88.9z
			 M129.1,97.8l7.6,0.7l-0.7,7.6l-7.6-0.7L129.1,97.8z M113.8,96.5l7.6,0.7l-0.7,7.6l-7.6-0.7L113.8,96.5z M98.6,95.2l7.6,0.7
			l-0.7,7.6l-7.6-0.7L98.6,95.2z M100.6,160.6l-7.6-0.7l0.7-7.6l7.6,0.7L100.6,160.6z M115.8,161.9l-7.6-0.7l0.7-7.6l7.6,0.7
			L115.8,161.9z M131,163.2l-7.6-0.7l0.7-7.6l7.6,0.7L131,163.2z M146.3,164.6l-7.6-0.7l0.7-7.6l7.6,0.7L146.3,164.6z M147.4,151.2
			l-53.3-4.7l3.3-38.1l53.3,4.7L147.4,151.2z M151.3,107.4l-7.6-0.7l0.7-7.6l7.6,0.7L151.3,107.4z"/>
		<path class="st0" d="M67.3,121.9l7.1-12.8l-9.2-11.4l5-9L0,94.9L6.7,171l67.7-5.9l4.3-7.8l-9.2-11.4l7.1-12.8L67.3,121.9z
			 M38.6,97.3l7.6-0.7l0.7,7.6l-7.6,0.7L38.6,97.3z M23.3,98.6L31,98l0.7,7.6l-7.6,0.7L23.3,98.6z M8.1,100l7.6-0.7l0.7,7.6
			l-7.6,0.7L8.1,100z M21.4,164l-7.6,0.7l-0.7-7.6l7.6-0.7L21.4,164z M36.6,162.7l-7.6,0.7l-0.7-7.6l7.6-0.7L36.6,162.7z
			 M51.9,161.4l-7.6,0.7l-0.7-7.6l7.6-0.7L51.9,161.4z M67.1,160l-7.6,0.7l-0.7-7.6l7.6-0.7L67.1,160z M65.9,146.7l-53.3,4.7
			l-3.3-38.1l53.3-4.7L65.9,146.7z M62.1,102.9l-7.6,0.7L53.8,96l7.6-0.7L62.1,102.9z"/>
	</g>
	<g>
		<path class="st0" d="M120,55.3L92,6.9C89.5,2.7,84.9,0,80,0l0,0c-5,0-9.6,2.7-12,7L40,55.3c-2.5,4.3-2.5,9.6,0,13.9
			c2.5,4.3,7.1,6.9,12,6.9l0,0h55.8c5,0,9.6-2.7,12-7C122.5,64.9,122.5,59.6,120,55.3z M112.6,64.9c-1,1.7-2.8,2.7-4.7,2.7H52.1l0,0
			c-1.9,0-3.7-1-4.7-2.7c-1-1.7-1-3.7,0-5.4l27.9-48.4c1-1.7,2.8-2.7,4.7-2.7l0,0c1.9,0,3.7,1,4.7,2.7l28,48.3
			C113.6,61.2,113.6,63.3,112.6,64.9z"/>
		<path class="st0" d="M80,55.6L80,55.6c-2.5,0-4.6,2.1-4.6,4.6s2.1,4.6,4.6,4.6l0,0c1.2,0,2.4-0.5,3.2-1.3c0.9-0.9,1.3-2,1.3-3.2
			C84.6,57.7,82.5,55.6,80,55.6z"/>
		<path class="st0" d="M80,19.6L80,19.6c-1.6,0-3.1,0.6-4.3,1.8c-1.1,1.1-1.8,2.7-1.8,4.3c0,0.5,0.1,1,0.2,1.5L77.2,50
			c0,0.7,0.3,1.4,0.8,1.9s1.2,0.8,2,0.8l0,0c1.5,0,2.8-1.2,2.8-2.8l3-22.8c0.1-0.5,0.2-1,0.2-1.5C86,22.4,83.3,19.6,80,19.6z"/>
	</g>
</g>
</svg>
