<svg id="Lager_1" data-name="Lager 1" xmlns="http://www.w3.org/2000/svg" viewBox="0 0 114 114.4"><defs><style>.cls-1{fill:#fff;}</style></defs><path class="cls-1" d="M125.9,289.5H105.4V212.4h51.4v11.7a33.6,33.6,0,0,1,10,5.5h5v4.7a37.2,37.2,0,0,1,6.5,10.4V203.9H84v94.2h54.5c0-1.3.1-2.6.2-3.9A33.5,33.5,0,0,1,125.9,289.5Zm37.4-77.1h8.5V221h-8.5ZM99,289.5H90.4V281H99Zm0-17.1H90.4v-8.6H99Zm0-17.1H90.4v-8.6H99Zm0-17.2H90.4v-8.5H99ZM99,221H90.4v-8.6H99Z" transform="translate(-84 -203.9)"/><path class="cls-1" d="M151.1,289.3a32,32,0,0,1-28.4-55h0a32.1,32.1,0,0,1,43.1,47.5A31.3,31.3,0,0,1,151.1,289.3Zm-18.2-43.8a16.9,16.9,0,1,0,22.7,25.1,16.5,16.5,0,0,0,5.6-11.7,17,17,0,0,0-4.4-12.2,16.8,16.8,0,0,0-23.9-1.2Z" transform="translate(-84 -203.9)"/><rect class="cls-1" x="161.5" y="278.5" width="9.7" height="9.1" transform="translate(-228.7 -25.8) rotate(-40.9)"/><rect class="cls-1" x="171" y="279.7" width="16.7" height="37.71" transform="translate(-235.7 -13.5) rotate(-40.9)"/></svg>