<svg id="Lager_1" data-name="Lager 1" xmlns="http://www.w3.org/2000/svg" viewBox="0 0 570.7 1285.6"><defs><style>.cls-1{fill:#efe9dc;}.cls-2{fill:#292822;}.cls-3{fill:#939393;}</style></defs><path class="cls-1" d="M514.7,3.4c0-1.1,0-2.3.1-3.4H57.5c.1,1.1.2,2.3.2,3.4A52.5,52.5,0,0,1,5.2,55.9L0,55.7V193.9a44.1,44.1,0,0,1,5.2-.3,52.5,52.5,0,0,1,0,105,44.1,44.1,0,0,1-5.2-.3v932.3H3.8c29,0,51.3,23.5,51.3,52.5a21.7,21.7,0,0,1-.1,2.6H514.8c0-1.1-.1-2.3-.1-3.4a52.5,52.5,0,0,1,52.5-52.5h3.5V298.3a44.1,44.1,0,0,1-5.2.3,52.5,52.5,0,1,1,0-105,44.1,44.1,0,0,1,5.2.3V55.9h-3.5A52.5,52.5,0,0,1,514.7,3.5Z" transform="translate(0 0)"/><polyline class="cls-2" points="12.5 1213.9 12.5 314.2 9.3 314.2 9.3 1213.9"/><path class="cls-2" d="M25.3,327.8V316.7H22.2v11.1m3.1,22.1V338.8H22.2v11.1m3.1,22.2V361H22.2v11.1m3.1,22.1V383.1H22.2v11.1m3.1,22.2V405.3H22.2v11.1m3.1,22.2V427.5H22.2v11.1m3.1,22.1V449.6H22.2v11.1m3.1,22.2V471.8H22.2v11.1M25.3,505V493.9H22.2V505m3.1,22.2V516.1H22.2v11.1m3.1,22.1V538.2H22.2v11.1m3.1,22.2V560.3H22.2v11.1m3.1,22.2V582.5H22.2v11.1m3.1,22.2V604.7H22.2v11.1m3.1,22.1V626.8H22.2v11.1M25.3,660V649H22.2v11m3.1,22.2V671.1H22.2v11.1m3.1,22.1v-11H22.2v11m3.1,22.2V715.4H22.2v11.1m3.1,22.1v-11H22.2v11m3.1,22.2V759.7H22.2v11.1m3.1,22.1V781.8H22.2v11.1m3.1,22.2V804H22.2v11.1m3.1,22.2V826.2H22.2v11.1m3.1,22.1V848.3H22.2v11.1m3.1,22.2V870.5H22.2v11.1m3.1,22.1V892.6H22.2v11.1m3.1,22.2V914.8H22.2v11.1M25.3,948V937H22.2v11m3.1,22.2V959.1H22.2v11.1m3.1,22.1v-11H22.2v11m3.1,22.2v-11.1H22.2v11.1m3.1,22.1v-11H22.2v11m3.1,22.2v-11H22.2v11m3.1,22.1v-11.1H22.2v11.1m3.1,22.2V1092H22.2v11.1m3.1,22.1v-11.1H22.2v11.1m3.1,22.1v-11H22.2v11m3.1,22.2v-11.1H22.2v11.1m3.1,22.2v-11.1H22.2v11.1m3.1,22.1v-11H22.2v11" transform="translate(0 0)"/><path class="cls-2" d="M23.6,79.8V71.4H20.5v8.4m3.1,16.7V88.1H20.5v8.4m3.1,16.7v-8.4H20.5v8.4m3.1,16.7v-8.3H20.5V130m3.1,16.6v-8.3H20.5v8.3m3.1,16.7V155H20.5v8.3m3.1,16.8v-8.4H20.5v8.4" transform="translate(0 0)"/><polyline class="cls-2" points="12.5 180.1 12.5 70 9.3 70 9.3 180.1"/><path class="cls-2" d="M92.4,1212.1H84.1v2.5h8.3m20.9-2.5H102.8v2.5h10.5m20.8-2.5H123.7v2.5h10.4m20.9-2.5H144.5v2.5H155m20.8-2.5H165.4v2.5h10.4m20.9-2.5H186.2v2.5h10.5m20.8-2.5H207.1v2.5h10.4m20.9-2.5H227.9v2.5h10.5m20.8-2.5H248.8v2.5h10.4m20.9-2.5H269.7v2.5h10.4m20.8-2.5H290.5v2.5h10.4m20.9-2.5H311.4v2.5h10.4m20.9-2.5H332.2v2.5h10.5m20.8-2.5H353.1v2.5h10.4m20.9-2.5H373.9v2.5h10.5m20.8-2.5H394.8v2.5h10.4m20.8-2.5H415.6v2.5H426m20.9-2.5H436.5v2.5h10.4m20.9-2.5H457.3v2.5h10.5m20.8-2.5H478.2v2.5h10.4" transform="translate(0 0)"/><polyline class="cls-2" points="488.6 1221.4 84.1 1221.4 84.1 1224 488.6 1224"/><path class="cls-2" d="M548.5,327.8V316.7h-3.1v11.1m3.1,22.1V338.8h-3.1v11.1m3.1,22.2V361h-3.1v11.1m3.1,22.1V383.1h-3.1v11.1m3.1,22.2V405.3h-3.1v11.1m3.1,22.2V427.5h-3.1v11.1m3.1,22.1V449.6h-3.1v11.1m3.1,22.2V471.8h-3.1v11.1m3.1,22.1V493.9h-3.1V505m3.1,22.2V516.1h-3.1v11.1m3.1,22.1V538.2h-3.1v11.1m3.1,22.1V560.3h-3.1v11.1m3.1,22.2V582.5h-3.1v11.1m3.1,22.2V604.7h-3.1v11.1m3.1,22.1V626.8h-3.1v11.1m3.1,22.1V649h-3.1v11m3.1,22.2V671.1h-3.1v11.1m3.1,22.1v-11h-3.1v11m3.1,22.2V715.4h-3.1v11.1m3.1,22.1v-11h-3.1v11m3.1,22.2V759.7h-3.1v11.1m3.1,22.1V781.8h-3.1v11.1m3.1,22.2V804h-3.1v11.1m3.1,22.2V826.2h-3.1v11.1m3.1,22.1V848.3h-3.1v11.1m3.1,22.2V870.5h-3.1v11.1m3.1,22.1V892.6h-3.1v11.1m3.1,22.2V914.8h-3.1v11.1m3.1,22.1V937h-3.1v11m3.1,22.2V959.1h-3.1v11.1m3.1,22.1v-11h-3.1v11m3.1,22.2v-11.1h-3.1v11.1m3.1,22.1v-11h-3.1v11m3.1,22.2v-11h-3.1v11m3.1,22.1v-11.1h-3.1v11.1m3.1,22.2V1092h-3.1v11.1m3.1,22.1v-11.1h-3.1v11.1m3.1,22.1v-11h-3.1v11m3.1,22.2v-11.1h-3.1v11.1m3.1,22.2v-11.1h-3.1v11.1m3.1,22.1v-11h-3.1v11" transform="translate(0 0)"/><polyline class="cls-2" points="560.6 1213.9 560.6 314.2 557.4 314.2 557.4 1213.9"/><path class="cls-2" d="M91.5,21H83.2v2.5h8.3M112.4,21H102v2.5h10.4M133.3,21H122.8v2.5h10.5M154.1,21H143.7v2.5h10.4M175,21H164.5v2.5H175M195.8,21H185.4v2.5h10.4M216.7,21H206.3v2.5h10.4M237.5,21H227.1v2.5h10.4M258.4,21H247.9v2.5h10.5M279.2,21H268.8v2.5h10.4M300.1,21H289.7v2.5h10.4M320.9,21H310.5v2.5h10.4M341.8,21H331.4v2.5h10.4M362.7,21H352.3v2.5h10.4M383.5,21H373.1v2.5h10.4M404.3,21H393.9v2.5h10.4M425.2,21H414.8v2.5h10.4M446,21H435.6v2.5H446M466.9,21H456.5v2.5h10.4M487.8,21H477.3v2.5h10.5" transform="translate(0 0)"/><polyline class="cls-2" points="487.8 10.7 83.2 10.7 83.2 13.2 487.8 13.2"/><path class="cls-2" d="M545.5,79.8V71.4h-3.1v8.4m3.1,16.7V88.1h-3.1v8.4m3.1,16.7v-8.4h-3.1v8.4m3.1,16.7v-8.3h-3.1V130m3.1,16.6v-8.3h-3.1v8.3m3.1,16.7V155h-3.1v8.3m3.1,16.8v-8.4h-3.1v8.4" transform="translate(0 0)"/><polyline class="cls-2" points="557.6 180.1 557.6 70 554.4 70 554.4 180.1"/><path class="cls-3" d="M78.8,249.6H67.6v4.1H78.8m22.4-4.1H90v4.1h11.2m22.4-4.1H112.4v4.1h11.2m22.4-4.1H134.8v4.1H146m22.4-4.1H157.2v4.1h11.2m22.4-4.1H179.6v4.1h11.2m22.3-4.1H201.9v4.1h11.2m22.4-4.1H224.3v4.1h11.2m22.4-4.1H246.7v4.1h11.2m22.4-4.1H269.1v4.1h11.2m22.4-4.1H291.5v4.1h11.2m22.4-4.1H313.9v4.1h11.2m22.4-4.1H336.3v4.1h11.2m22.4-4.1H358.7v4.1h11.2m22.4-4.1H381.1v4.1h11.2m22.4-4.1H403.5v4.1h11.2m22.3-4.1H425.9v4.1H437m22.4-4.1H448.3v4.1h11.1m22.4-4.1H470.6v4.1h11.2m22.4-4.1H493v4.1h11.2" transform="translate(0 0)"/></svg>